<svg xmlns="http://www.w3.org/2000/svg" width="1252" height="348" fill="none"><rect width="1252" height="348" fill="url(#a)" rx="37"/><mask id="c" width="1252" height="348" x="0" y="0" maskUnits="userSpaceOnUse" style="mask-type:alpha"><rect width="1252" height="348" fill="url(#b)" rx="37"/></mask><g mask="url(#c)"><g filter="url(#d)"><ellipse cx="227.605" cy="26.752" fill="url(#e)" rx="227.605" ry="26.752" transform="matrix(.77446 -.63262 .66654 .74547 345 335.978)"/><path stroke="#000" stroke-width=".998" d="M714.986 68.259c.513.574.791 1.38.789 2.462-.002 1.087-.288 2.421-.871 4-1.167 3.16-3.483 7.202-6.867 12.026-6.765 9.641-17.731 22.312-32.06 37.138-28.655 29.648-70.712 67.864-119.377 107.617-48.666 39.753-94.713 73.506-129.817 95.94-17.556 11.219-32.358 19.598-43.376 24.482-5.513 2.444-10.051 4.001-13.497 4.61-1.724.304-3.147.367-4.271.2-1.119-.167-1.908-.556-2.422-1.13-.513-.574-.791-1.379-.789-2.462.002-1.087.288-2.421.872-4.001 1.166-3.159 3.482-7.201 6.867-12.025 6.764-9.641 17.73-22.312 32.06-37.138 28.654-29.648 70.711-67.864 119.376-107.617s94.713-73.506 129.818-95.94c17.555-11.22 32.358-19.598 43.375-24.482 5.513-2.444 10.051-4.001 13.497-4.61 1.724-.304 3.148-.367 4.271-.2 1.119.167 1.908.556 2.422 1.13Z"/></g><g filter="url(#f)"><ellipse cx="171.012" cy="20.1" fill="url(#g)" rx="171.012" ry="20.1" transform="matrix(.70802 -.7062 .73707 .67582 1063 126.535)"/><path stroke="#000" stroke-width=".998" d="M1319.62-101.064c.4.366.66.917.74 1.706.07.795-.04 1.799-.35 3.016-.64 2.435-2.06 5.618-4.23 9.473-4.34 7.704-11.59 17.987-21.2 30.136-19.21 24.294-47.81 55.991-81.24 89.33-33.42 33.34-65.34 61.998-89.91 81.379-12.29 9.692-22.73 17.053-30.59 21.52-3.94 2.236-7.21 3.731-9.72 4.439-1.26.353-2.31.502-3.14.462-.83-.041-1.41-.266-1.81-.631s-.66-.916-.74-1.706c-.07-.794.04-1.798.35-3.016.64-2.434 2.06-5.618 4.23-9.473 4.34-7.703 11.59-17.986 21.2-30.136 19.21-24.293 47.81-55.99 81.24-89.33 33.42-33.34 65.34-61.997 89.91-81.378 12.29-9.693 22.73-17.054 30.59-21.52 3.94-2.236 7.21-3.732 9.72-4.439 1.26-.354 2.31-.503 3.14-.462s1.41.265 1.81.63Z"/></g><g filter="url(#h)"><ellipse cx="293.237" cy="35.249" fill="url(#i)" rx="293.237" ry="35.249" transform="matrix(.799 -.60132 .63636 .7714 419.426 387.689)"/><path stroke="#000" stroke-width=".998" d="M910.055 62.522c1.362 1.651 1.339 4.478-.316 8.583-1.638 4.061-4.803 9.194-9.38 15.27-9.15 12.145-23.867 27.965-43.031 46.373-38.322 36.813-94.37 83.926-159.059 132.61s-125.757 89.71-172.194 116.686c-23.221 13.49-42.768 23.456-57.271 29.112-7.255 2.829-13.22 4.568-17.738 5.138-4.565.577-7.448-.063-8.81-1.713s-1.338-4.479.316-8.583c1.638-4.062 4.804-9.194 9.381-15.27 9.149-12.145 23.867-27.965 43.03-46.374 38.322-36.812 94.37-83.925 159.059-132.609s125.757-89.71 172.194-116.686c23.222-13.49 42.768-23.456 57.271-29.112 7.255-2.829 13.22-4.568 17.738-5.139 4.565-.576 7.449.063 8.81 1.714Z"/></g><g filter="url(#j)"><ellipse cx="293.237" cy="35.249" fill="url(#k)" rx="293.237" ry="35.249" transform="matrix(.799 -.60132 .63636 .7714 209 310.659)"/><path stroke="#000" stroke-width=".998" d="M699.63-14.509c1.361 1.651 1.338 4.479-.317 8.583-1.638 4.062-4.803 9.194-9.38 15.27-9.15 12.145-23.867 27.965-43.031 46.374-38.322 36.812-94.369 83.925-159.058 132.609s-125.758 89.711-172.195 116.686c-23.221 13.49-42.767 23.456-57.271 29.112-7.255 2.829-13.22 4.568-17.738 5.139-4.564.576-7.448-.063-8.81-1.714s-1.338-4.478.317-8.582c1.637-4.062 4.803-9.195 9.38-15.271 9.149-12.145 23.867-27.965 43.03-46.373 38.323-36.813 94.37-83.926 159.059-132.61 64.689-48.683 125.758-89.71 172.194-116.686 23.222-13.49 42.768-23.456 57.271-29.111 7.256-2.83 13.221-4.568 17.739-5.14 4.564-.576 7.448.064 8.81 1.714Z"/></g><g filter="url(#l)"><ellipse cx="171.012" cy="20.1" fill="url(#m)" rx="171.012" ry="20.1" transform="matrix(.70802 -.7062 .73707 .67582 1169 229.535)"/><path stroke="#000" stroke-width=".998" d="M1425.62 1.936c.4.366.66.917.74 1.706.07.795-.04 1.799-.35 3.016-.64 2.434-2.06 5.618-4.23 9.473-4.34 7.704-11.59 17.987-21.2 30.136-19.21 24.294-47.81 55.991-81.24 89.331-33.42 33.34-65.34 61.997-89.91 81.378-12.29 9.692-22.73 17.053-30.59 21.52-3.94 2.236-7.21 3.731-9.72 4.439-1.26.353-2.31.502-3.14.462-.83-.041-1.41-.266-1.81-.631s-.66-.916-.74-1.706c-.07-.794.04-1.798.35-3.016.64-2.434 2.06-5.618 4.23-9.473 4.34-7.703 11.59-17.986 21.2-30.136 19.21-24.293 47.81-55.991 81.24-89.33 33.42-33.34 65.34-61.997 89.91-81.378 12.29-9.693 22.73-17.054 30.59-21.52 3.94-2.236 7.21-3.732 9.72-4.44 1.26-.353 2.31-.502 3.14-.461s1.41.265 1.81.63Z"/></g></g><defs><linearGradient id="a" x1="0" x2="1252" y1="174" y2="174" gradientUnits="userSpaceOnUse"><stop stop-color="#4C1AA5"/><stop offset="1" stop-color="#4E18AA"/></linearGradient><linearGradient id="b" x1="0" x2="1252" y1="174" y2="174" gradientUnits="userSpaceOnUse"><stop stop-color="#4C1AA5"/><stop offset="1" stop-color="#4E18AA"/></linearGradient><linearGradient id="e" x1="227.605" x2="215.437" y1="0" y2="9.443" gradientUnits="userSpaceOnUse"><stop stop-color="#8133A4"/><stop offset="1" stop-color="#ED68C3"/></linearGradient><linearGradient id="g" x1="171.012" x2="161.87" y1="0" y2="7.095" gradientUnits="userSpaceOnUse"><stop stop-color="#8133A4"/><stop offset="1" stop-color="#ED68C3"/></linearGradient><linearGradient id="m" x1="171.012" x2="161.87" y1="0" y2="7.095" gradientUnits="userSpaceOnUse"><stop stop-color="#8133A4"/><stop offset="1" stop-color="#ED68C3"/></linearGradient><filter id="d" width="473.76" height="410.154" x="302.222" y="6.855" color-interpolation-filters="sRGB" filterUnits="userSpaceOnUse"><feFlood flood-opacity="0" result="BackgroundImageFix"/><feBlend in="SourceGraphic" in2="BackgroundImageFix" result="shape"/><feGaussianBlur result="effect1_foregroundBlur_669_846" stdDeviation="29.848"/></filter><filter id="f" width="363.383" height="362.472" x="1017.2" y="-161.885" color-interpolation-filters="sRGB" filterUnits="userSpaceOnUse"><feFlood flood-opacity="0" result="BackgroundImageFix"/><feBlend in="SourceGraphic" in2="BackgroundImageFix" result="shape"/><feGaussianBlur result="effect1_foregroundBlur_669_846" stdDeviation="29.848"/></filter><filter id="h" width="590.165" height="476.27" x="381.073" y=".417" color-interpolation-filters="sRGB" filterUnits="userSpaceOnUse"><feFlood flood-opacity="0" result="BackgroundImageFix"/><feBlend in="SourceGraphic" in2="BackgroundImageFix" result="shape"/><feGaussianBlur result="effect1_foregroundBlur_669_846" stdDeviation="29.848"/></filter><filter id="j" width="590.165" height="476.27" x="170.648" y="-76.614" color-interpolation-filters="sRGB" filterUnits="userSpaceOnUse"><feFlood flood-opacity="0" result="BackgroundImageFix"/><feBlend in="SourceGraphic" in2="BackgroundImageFix" result="shape"/><feGaussianBlur result="effect1_foregroundBlur_669_846" stdDeviation="29.848"/></filter><filter id="l" width="363.383" height="362.472" x="1123.2" y="-58.885" color-interpolation-filters="sRGB" filterUnits="userSpaceOnUse"><feFlood flood-opacity="0" result="BackgroundImageFix"/><feBlend in="SourceGraphic" in2="BackgroundImageFix" result="shape"/><feGaussianBlur result="effect1_foregroundBlur_669_846" stdDeviation="29.848"/></filter><radialGradient id="i" cx="0" cy="0" r="1" gradientTransform="matrix(-4.5352 10.57428 -108.75173 -46.6425 288.702 10.574)" gradientUnits="userSpaceOnUse"><stop stop-color="#3A1187"/><stop offset="1" stop-color="#391183"/></radialGradient><radialGradient id="k" cx="0" cy="0" r="1" gradientTransform="matrix(-4.5352 10.57428 -108.75173 -46.6425 288.702 10.574)" gradientUnits="userSpaceOnUse"><stop stop-color="#3A1187"/><stop offset="1" stop-color="#391183"/></radialGradient></defs></svg>