<svg xmlns="http://www.w3.org/2000/svg" width="16" height="15" fill="none"><path fill="#fff" d="M12.256 3.173c-.193 0-.35.15-.35.333s.157.334.35.334.35-.15.35-.333a.34.34 0 0 0-.35-.334M8.073 4.544c-1.707 0-3.096 1.327-3.096 2.958 0 1.63 1.389 2.958 3.096 2.958s3.097-1.327 3.097-2.958-1.39-2.958-3.097-2.958"/><path fill="#fff" d="M11.326.629H4.827C2.652.629.883 2.319.883 4.396v6.209c0 2.077 1.77 3.767 3.944 3.767h6.5c2.174 0 3.944-1.69 3.944-3.767V4.396C15.27 2.32 13.5.63 11.326.63M8.076 11.27c-2.175 0-3.945-1.69-3.945-3.77 0-2.078 1.77-3.769 3.946-3.769s3.946 1.691 3.946 3.77-1.77 3.769-3.946 3.769m4.183-6.62c-.661 0-1.199-.513-1.199-1.144 0-.632.538-1.146 1.199-1.146s1.199.514 1.199 1.146-.538 1.145-1.199 1.145"/></svg>